<svg width="288" height="32" viewBox="0 0 288 32" fill="none" xmlns="http://www.w3.org/2000/svg">
<path d="M0 14C0 11.7909 1.79086 10 4 10H169V18H4C1.79086 18 0 16.2091 0 14Z" fill="#D99E16"/>
<g clip-path="url(#clip0_10_4150)">
<rect width="28" height="8" transform="translate(169 10)" fill="#F7DA95"/>
<path d="M158.998 22L174.999 6" stroke="#D99E16" stroke-width="2" stroke-linecap="round"/>
<path d="M166.999 22L183 6" stroke="#D99E16" stroke-width="2" stroke-linecap="round"/>
<path d="M175 22L191.001 6" stroke="#D99E16" stroke-width="2" stroke-linecap="round"/>
<path d="M183 22L199.001 6" stroke="#D99E16" stroke-width="2" stroke-linecap="round"/>
<path d="M191 22L207.002 6" stroke="#D99E16" stroke-width="2" stroke-linecap="round"/>
</g>
<path d="M197 10H284C286.209 10 288 11.7909 288 14C288 16.2091 286.209 18 284 18H197V10Z" fill="#F7DA95"/>
<g filter="url(#filter0_d_10_4150)">
<rect x="159" y="4" width="20" height="20" rx="10" fill="#D99E16"/>
<rect x="162" y="7" width="14" height="14" rx="7" stroke="white" stroke-width="6"/>
</g>
<defs>
<filter id="filter0_d_10_4150" x="153" y="0" width="32" height="32" filterUnits="userSpaceOnUse" color-interpolation-filters="sRGB">
<feFlood flood-opacity="0" result="BackgroundImageFix"/>
<feColorMatrix in="SourceAlpha" type="matrix" values="0 0 0 0 0 0 0 0 0 0 0 0 0 0 0 0 0 0 127 0" result="hardAlpha"/>
<feOffset dy="2"/>
<feGaussianBlur stdDeviation="3"/>
<feComposite in2="hardAlpha" operator="out"/>
<feColorMatrix type="matrix" values="0 0 0 0 0.662745 0 0 0 0 0.486275 0 0 0 0 0.0666667 0 0 0 0.24 0"/>
<feBlend mode="normal" in2="BackgroundImageFix" result="effect1_dropShadow_10_4150"/>
<feBlend mode="normal" in="SourceGraphic" in2="effect1_dropShadow_10_4150" result="shape"/>
</filter>
<clipPath id="clip0_10_4150">
<rect width="28" height="8" fill="white" transform="translate(169 10)"/>
</clipPath>
</defs>
</svg>
